<svg xmlns="http://www.w3.org/2000/svg" width="100" height="100" viewBox="0 0 100 100">
  <rect x="0" y="0" width="100" height="100" rx="22" fill="#0a0a0a"/>
  <g transform="translate(2 6) scale(0.92)">
    <path d="M40 70 C14 52 22 14 50 4 C66 -2 78 12 72 28 C67 41 52 38 52 50 C52 58 48 64 40 70 Z" fill="#ffffff"/>
    <circle cx="54" cy="62" r="30" fill="none" stroke="#ffffff" stroke-width="4.5"/>
    <path d="M54.00,54.00 Q54.65,43.51 55.88,35.07 L61.89,36.18 Z M58.33,55.27 Q64.54,46.80 70.15,40.36 L74.60,44.55 Z M61.28,58.68 Q71.09,54.91 79.28,52.52 L80.77,58.45 Z M61.92,63.14 Q72.21,65.27 80.39,67.70 L78.43,73.49 Z M60.05,67.24 Q67.55,74.60 73.12,81.06 L68.34,84.87 Z M56.25,69.68 Q58.59,79.92 59.78,88.37 L53.70,89.00 Z M51.75,69.68 Q48.17,79.56 44.60,87.31 L39.15,84.55 Z M47.95,67.24 Q39.60,73.62 32.41,78.21 L29.32,72.94 Z M46.08,63.14 Q35.61,63.99 27.07,63.97 L27.32,57.86 Z M46.72,58.68 Q37.45,53.73 30.28,49.10 L33.79,44.09 Z M49.67,55.27 Q44.55,46.10 41.02,38.32 L46.68,36.01 Z" fill="#ffffff"/>
    <circle cx="54" cy="62" r="7" fill="#ffffff"/>
  </g>
</svg>